<?xml version="1.0" encoding="utf-8"?><svg xml:space="preserve" viewBox="0 0 100 100" y="0px" x="0px" xmlns:xlink="http://www.w3.org/1999/xlink" xmlns="http://www.w3.org/2000/svg" id="Layer_1" version="1.1" width="200px" height="200px" style="width:100%;height:100%;animation-play-state:paused" ><g class="ldl-scale" style="transform-origin:50% 50%;transform:rotate(0deg) scale(0.8, 0.8);animation-play-state:paused" ><path d="M19.4,67.67c1.99,1.38,4.57,1.87,7.07,1.09l0,0c2.75-0.85,5.53,1.2,5.53,4.07v0c0,1.62,1.22,3.08,2.84,3.17 c1.73,0.09,3.16-1.29,3.16-3c0,0,0-7.27,0-12.03c0-2.5,1.34-4.82,3.5-6.07L50,50v32.5c11.22-0.01,22.13-5.83,28.15-16.25l0,0 c5.6-9.72,6.02-22.08,0-32.5l0,0C72.52,24.04,62.03,17.5,50,17.5v0c-11.22,0.01-22.13,5.83-28.15,16.25l0,0 c-5.6,9.72-6.02,22.08,0,32.5L31,61" stroke-miterlimit="10" stroke-linejoin="round" stroke-linecap="round" stroke-width="3.5" stroke="#323334" fill="#F5E169" style="stroke:rgb(50, 51, 52);fill:rgb(245, 225, 105);animation-play-state:paused" ></path>
<path d="M90.75,30.91c-0.88-1.87-3.15-2.61-4.94-1.58l-0.01,0.01c1.79-1.03,2.29-3.37,1.11-5.06C79.47,13.61,67.53,6.32,53.84,5.16 C51.78,4.99,50,6.58,50,8.65v0.01c0-2.06-1.77-3.67-3.83-3.49c-12.96,1.12-25.24,7.81-33.09,19.08c-1.18,1.7-0.69,4.04,1.1,5.07 l2.8,1.62l-2.79-1.61c-1.79-1.03-4.06-0.3-4.94,1.57C3.75,42.68,3.41,56.66,9.25,69.09c0.88,1.87,3.15,2.61,4.94,1.58l7.66-4.42 c-6.01-10.42-5.6-22.77,0-32.5l0,0C27.87,23.33,38.78,17.51,50,17.5v0c12.03,0,22.52,6.54,28.14,16.25l0,0 c6.01,10.42,5.6,22.77,0,32.5l0,0C72.13,76.67,61.22,82.49,50,82.5v8.84c0,2.06,1.77,3.67,3.83,3.49 c12.96-1.12,25.24-7.81,33.09-19.08c1.18-1.7,0.69-4.04-1.1-5.07l-2.8-1.62l2.79,1.61c1.79,1.03,4.06,0.3,4.94-1.57 C96.25,57.32,96.59,43.34,90.75,30.91z" stroke-miterlimit="10" stroke-linejoin="round" stroke-linecap="round" stroke-width="3.5" stroke="#323334" fill="#F6B26A" style="stroke:rgb(50, 51, 52);fill:rgb(246, 178, 106);animation-play-state:paused" ></path>
<path d="M37.19,35.18c0,0,1.54,6.51-1.6,10s-9.78,2.64-9.78,2.64s-1.54-6.51,1.6-10S37.19,35.18,37.19,35.18z" stroke-miterlimit="10" stroke-linejoin="round" stroke-linecap="round" stroke-width="3.5" stroke="#323334" fill="#849B87" style="stroke:rgb(50, 51, 52);fill:rgb(132, 155, 135);animation-play-state:paused" ></path>
<path d="M72.48,41.43c0,0-5.47,3.85-9.87,2.23c-4.41-1.62-6.08-8.09-6.08-8.09s5.47-3.85,9.87-2.23C70.8,34.95,72.48,41.43,72.48,41.43z" stroke-miterlimit="10" stroke-linejoin="round" stroke-linecap="round" stroke-width="3.5" stroke="#323334" fill="#849B87" style="stroke:rgb(50, 51, 52);fill:rgb(132, 155, 135);animation-play-state:paused" ></path>
<line y2="58.06" x2="55.89" y1="57.2" x1="56.39" stroke-miterlimit="10" stroke-linejoin="round" stroke-linecap="round" stroke-width="3.5" stroke="#323334" fill="none" style="stroke:rgb(50, 51, 52);animation-play-state:paused" ></line>
<line y2="52.03" x2="63.12" y1="49.27" x1="57.43" stroke-miterlimit="10" stroke-linejoin="round" stroke-linecap="round" stroke-width="3.5" stroke="#323334" fill="none" style="stroke:rgb(50, 51, 52);animation-play-state:paused" ></line>
<line y2="51.34" x2="73.74" y1="52.06" x1="73.04" stroke-miterlimit="10" stroke-linejoin="round" stroke-linecap="round" stroke-width="3.5" stroke="#323334" fill="none" style="stroke:rgb(50, 51, 52);animation-play-state:paused" ></line>
<line y2="28" x2="56" y1="28" x1="55" stroke-miterlimit="10" stroke-linejoin="round" stroke-linecap="round" stroke-width="3.5" stroke="#323334" fill="none" style="stroke:rgb(50, 51, 52);animation-play-state:paused" ></line>
<line y2="49.94" x2="36.11" y1="50.8" x1="36.61" stroke-miterlimit="10" stroke-linejoin="round" stroke-linecap="round" stroke-width="3.5" stroke="#323334" fill="none" style="stroke:rgb(50, 51, 52);animation-play-state:paused" ></line>
<circle r="5.5" cy="63.51" cx="66.61" stroke-miterlimit="10" stroke-width="3.5" stroke="#323334" fill="#C33836" style="stroke:rgb(50, 51, 52);fill:rgb(195, 56, 54);animation-play-state:paused" ></circle>
<circle r="5.5" cy="30.51" cx="42.61" stroke-miterlimit="10" stroke-width="3.5" stroke="#323334" fill="#C33836" style="stroke:rgb(50, 51, 52);fill:rgb(195, 56, 54);animation-play-state:paused" ></circle>
<line y2="41.94" x2="48.11" y1="42.8" x1="47.61" stroke-miterlimit="10" stroke-linejoin="round" stroke-linecap="round" stroke-width="3.5" stroke="#323334" fill="none" style="stroke:rgb(50, 51, 52);animation-play-state:paused" ></line>
<path d="M56.48,73.43c0,0-1.68-6.47-6.08-8.09c-0.01,0-0.02-0.01-0.02-0.01C49.21,64.91,48,65.85,48,67.08v7.08c0,1.07,0.92,1.95,1.99,1.83 C53.39,75.6,56.48,73.43,56.48,73.43z" stroke-miterlimit="10" stroke-linejoin="round" stroke-linecap="round" stroke-width="3.5" stroke="#323334" fill="#849B87" style="stroke:rgb(50, 51, 52);fill:rgb(132, 155, 135);animation-play-state:paused" ></path>
<metadata xmlns:d="https://loading.io/stock/" style="animation-play-state:paused" ><d:name style="animation-play-state:paused" >pizza</d:name>


<d:tags style="animation-play-state:paused" >pizza,delicious,food,yummy,bread,cheese,pepper,vegetable,broccoli,sausage</d:tags>


<d:license style="animation-play-state:paused" >by</d:license>


<d:slug style="animation-play-state:paused" >gonzip</d:slug></metadata></g><!-- generated by https://loading.io/ --></svg>