<?xml version="1.0" encoding="iso-8859-1"?>
<!-- Uploaded to: SVG Repo, www.svgrepo.com, Generator: SVG Repo Mixer Tools -->
<svg height="800px" width="800px" version="1.1" id="Layer_1" xmlns="http://www.w3.org/2000/svg" xmlns:xlink="http://www.w3.org/1999/xlink" 
	 viewBox="0 0 512 512" xml:space="preserve">
<circle style="fill:#FDDF6D;" cx="256.002" cy="256.001" r="245.994"/>
<path style="fill:#FCC56B;" d="M308.717,465.678c-135.858,0-245.993-110.134-245.993-245.993
	c0-72.584,31.443-137.816,81.444-182.842C64.528,77.562,10.008,160.414,10.008,256c0,135.858,110.134,245.993,245.993,245.993
	c63.274,0,120.962-23.898,164.549-63.149C386.998,455.999,348.988,465.678,308.717,465.678z"/>
<g>
	<path style="fill:#F9A880;" d="M168.969,273.849c-18.268,0-33.079,14.81-33.079,33.079h66.157
		C202.046,288.659,187.237,273.849,168.969,273.849z"/>
	<path style="fill:#F9A880;" d="M438.815,273.849c-18.268,0-33.079,14.81-33.079,33.079h66.157
		C471.894,288.659,457.084,273.849,438.815,273.849z"/>
</g>
<path style="fill:#FFFFFF;" d="M369.044,408.189H259.062c-20.266,0-36.694-16.428-36.694-36.694l0,0
	c0-20.266,16.428-36.694,36.694-36.694h109.982c20.266,0,36.694,16.428,36.694,36.694l0,0
	C405.737,391.761,389.309,408.189,369.044,408.189z"/>
<path style="fill:#E6E6E6;" d="M222.368,371.495L222.368,371.495c0,3.471,0.492,6.825,1.393,10.007h180.583
	c0.901-3.182,1.393-6.537,1.393-10.007l0,0c0-3.471-0.492-6.825-1.393-10.007H223.761
	C222.86,364.671,222.368,368.025,222.368,371.495z"/>
<g>
	<circle style="fill:#FFFFFF;" cx="213.131" cy="179.932" r="71.359"/>
	<circle style="fill:#FFFFFF;" cx="413.251" cy="179.932" r="71.359"/>
</g>
<g>
	<circle style="fill:#7F184C;" cx="225.139" cy="179.932" r="20.015"/>
	<circle style="fill:#7F184C;" cx="428.195" cy="179.932" r="20.015"/>
</g>
<path d="M486.856,145.305c-0.196-0.416-0.398-0.83-0.6-1.244c-1.652-3.397-3.352-6.772-5.157-10.094
	c-0.847-1.561-2.053-2.801-3.456-3.683c-14.894-19.27-38.211-31.714-64.394-31.714c-44.865,0-81.365,36.5-81.365,81.366
	c0,44.865,36.5,81.365,81.365,81.365c33.384,0,62.123-20.216,74.654-49.041c2.705,14.377,4.086,29.031,4.086,43.739
	c0,130.124-105.862,235.984-235.984,235.984S20.015,386.124,20.015,256S125.878,20.015,256.001,20.015
	c35.798,0,70.18,7.81,102.186,23.21c4.98,2.394,10.96,0.302,13.358-4.679c2.396-4.98,0.302-10.961-4.679-13.358
	C332.129,8.476,294.829,0,256.001,0c-141.16,0-256,114.84-256,256c0,141.158,114.84,256,256,256
	c141.158,0,255.999-114.84,255.999-255.999C512.001,217.652,503.32,179.653,486.856,145.305z M474.6,179.937
	c0,33.83-27.523,61.35-61.352,61.35s-61.35-27.522-61.35-61.35s27.522-61.352,61.35-61.352c24.07,0,44.936,13.94,54.979,34.164
	c0.196,0.403,0.391,0.806,0.584,1.209C472.516,161.854,474.6,170.655,474.6,179.937z"/>
<path d="M212.359,371.495c0,25.751,20.95,46.701,46.701,46.701h109.983c25.751,0,46.701-20.95,46.701-46.701
	c0-25.751-20.95-46.701-46.701-46.701H259.06C233.311,324.795,212.359,345.745,212.359,371.495z M395.73,371.495
	c0,14.715-11.971,26.686-26.686,26.686H259.06c-14.715,0-26.686-11.971-26.686-26.686c0-14.715,11.971-26.686,26.686-26.686h109.983
	C383.759,344.809,395.73,356.781,395.73,371.495z"/>
<path d="M213.135,98.571c-44.866,0-81.366,36.5-81.366,81.366c0,44.865,36.5,81.365,81.366,81.365
	c44.865,0,81.365-36.5,81.365-81.365C294.501,135.071,257.999,98.571,213.135,98.571z M213.135,241.289
	c-33.83,0-61.352-27.522-61.352-61.35s27.523-61.352,61.352-61.352s61.35,27.523,61.35,61.352S246.965,241.289,213.135,241.289z"/>
<circle cx="391.208" cy="50.119" r="10.007"/>
</svg>